# xmcd
#
# Track frame offsets:
#	150
#	12255
#	20065
#	39245
#	45355
#	59100
#	69882
#	83205
#	97465
#	109727
#	121247
#	137162
#	145795
#	158212
#	171395
#	185787
#
# Disc length: 2673 seconds
#
# Revision: 1
# Processed by: cddbd v1.5.2PL0 Copyright (c) Steve Scherf et al.
# Submitted via: audiograbber 1.80
#
DISCID=e40a6f10
DTITLE=Cowtown Opry, Inc. - TEXAS, OUR TEXAS and other Favorite Songs of the Lo
DTITLE=ne Star State
DYEAR=1900
DGENRE=
TTITLE0=DEEP IN THE HEART OF TEXAS
TTITLE1=YELLOW ROSE OF TEXAS
TTITLE2=BEAUTIFUL, BEAUTIFUL TEXAS
TTITLE3=EYES OF TEXAS
TTITLE4=TEXAS, OUR TEXAS
TTITLE5=HOME ON THE RANGE
TTITLE6=HILL COUNTRY THEME - Boston Pops Orchestra 
TTITLE7=WALTZ ACROSS TEXAS
TTITLE8=SAN ANTONIO ROSE
TTITLE9=STREETS OF LAREDO
TTITLE10=MILES AND MILES OF TEXAS
TTITLE11=RED RIVER VALLEY
TTITLE12=WHOOPEE TI YI YO
TTITLE13=SING ME A SONG ABOUT TEXAS - Cowboy Chuck Smith
TTITLE14=TUMBLING TUMBLE WEEDS
TTITLE15=OLD CHISHOLM TRAIL
EXTD=Produced by Cowtown Opry, Inc.\nMusicans include the Cowtown Opry Cowboys,
EXTD=Cowboy John Cromer and others. 
EXTT0=
EXTT1=
EXTT2=
EXTT3=
EXTT4=
EXTT5=
EXTT6=
EXTT7=
EXTT8=
EXTT9=
EXTT10=
EXTT11=
EXTT12=
EXTT13=
EXTT14=
EXTT15=
PLAYORDER=
